# xmcd
#
# Track frame offsets:
#	150
#	17532
#	31127
#	46165
#	58200
#	73475
#	89340
#	105930
#	122787
#	134430
#	149295
#	168047
#	179450
#	191375
#	205457
#
# Disc length: 3036 seconds
#
# Revision: 0
# Processed by: cddbd v1.5.2PL0 Copyright (c) Steve Scherf et al.
# Submitted via: EasyCDDAExtractor 15.2.0.1
#
DISCID=d20bda0f
DTITLE=Reginaldo Rossi - Meus Momentos
DYEAR=1994
DGENRE=Brega
TTITLE0=A raposa e as uvas
TTITLE1=A volta
TTITLE2=Em plena lua de mel
TTITLE3=Mon amour meu bem ma femme
TTITLE4=Ai amor!
TTITLE5=Garçon
TTITLE6=Amor, amor, amor
TTITLE7=Não consigo te esquecer
TTITLE8=Sai de mim
TTITLE9=As quatro estações
TTITLE10=Saí da tua vida
TTITLE11=Teu olhar, teu andar
TTITLE12=Meu fracasso
TTITLE13=Doce pecado
TTITLE14=Recife minha cidade
EXTD=
EXTT0=
EXTT1=
EXTT2=
EXTT3=
EXTT4=
EXTT5=
EXTT6=
EXTT7=
EXTT8=
EXTT9=
EXTT10=
EXTT11=
EXTT12=
EXTT13=
EXTT14=
PLAYORDER=
